<svg width="24" height="24" viewBox="0 0 24 24" fill="none" xmlns="http://www.w3.org/2000/svg">
<g clip-path="url(#clip0_170_2675)">
<path d="M10.7136 10.9164C10.5013 10.9105 10.2892 10.9319 10.0824 10.98V13.0536C10.2132 13.086 10.3728 13.0956 10.5936 13.0956C11.4036 13.0956 11.9052 12.6684 11.9052 11.9496C11.9052 11.3016 11.4732 10.9164 10.7136 10.9164ZM21.5088 8.5848H20.892L20.9244 6.3168C20.9205 6.18426 20.8694 6.05745 20.7804 5.9592L15.4812 0.1608C15.4386 0.112155 15.3865 0.0727795 15.3281 0.0451178C15.2697 0.0174562 15.2062 0.00209905 15.1416 0L4.05357 0C3.80496 0.00399127 3.5676 0.104281 3.39145 0.279759C3.2153 0.455236 3.11411 0.692212 3.10917 0.9408V8.5848H2.49117C2.14917 8.5848 1.81917 8.7264 1.57917 8.9784C1.33429 9.23452 1.19835 9.57566 1.19997 9.93V16.926C1.19997 17.6676 1.77837 18.27 2.49117 18.27H3.10917V23.058C3.11382 23.3072 3.21521 23.5448 3.3919 23.7206C3.5686 23.8964 3.80674 23.9966 4.05597 24H19.9896C20.4876 24 20.9256 23.5776 20.9256 23.0592V18.2712H21.51C22.2228 18.2712 22.8012 17.6676 22.8012 16.9248V9.9288C22.8012 9.5736 22.6656 9.2304 22.4232 8.9784C22.3056 8.85464 22.1642 8.75597 22.0074 8.68832C21.8507 8.62068 21.6819 8.58546 21.5112 8.5848H21.5088ZM4.73997 1.6536H13.0872V7.146C13.0867 7.26967 13.134 7.38874 13.2192 7.4784C13.2605 7.52184 13.3102 7.55647 13.3652 7.58019C13.4203 7.6039 13.4796 7.61622 13.5396 7.6164H19.2504V8.5848H4.73997V1.6536ZM13.416 11.9076C13.416 12.5952 13.1952 13.1796 12.7956 13.5756C12.2748 14.0868 11.5044 14.316 10.6032 14.316C10.4028 14.316 10.2228 14.3052 10.0824 14.2848V16.7976H8.67837V9.864C9.14997 9.78 9.70317 9.7176 10.6344 9.7176C11.574 9.7176 12.2448 9.906 12.6948 10.2816C13.1256 10.6356 13.4148 11.2188 13.4148 11.9076H13.416ZM4.06557 15.4632C4.27557 15.5352 4.54557 15.588 4.84557 15.588C5.48637 15.588 5.88597 15.2856 5.88597 14.1912V9.7704H7.40757V14.2104C7.40757 16.2144 6.48597 16.9116 5.00517 16.9116C4.62895 16.9112 4.25488 16.855 3.89517 16.7448L4.06557 15.4632ZM4.73997 22.3464V18.27H19.2504V22.3464H4.73997ZM20.0208 16.4736C19.2955 16.7236 18.5354 16.8572 17.7684 16.8696C16.5384 16.8696 15.648 16.5468 15.0276 15.9216C14.4072 15.3168 14.0664 14.4 14.076 13.3668C14.0868 11.0316 15.7176 9.6972 17.9292 9.6972C18.8004 9.6972 19.4712 9.8736 19.8012 10.0404L19.4808 11.3124C19.11 11.1456 18.6492 11.01 17.9088 11.01C16.638 11.01 15.6768 11.7612 15.6768 13.284C15.6768 14.7324 16.548 15.588 17.7996 15.588C18.15 15.588 18.4296 15.546 18.5496 15.4836V14.0136H17.5092V12.7728H20.0208V16.4736ZM14.7492 1.824L15.2112 2.3448L18.3072 5.7684L18.4788 5.976H15.3144C15.0744 5.976 14.9244 5.9364 14.8608 5.856C14.7972 5.778 14.76 5.652 14.7492 5.4804V1.824Z" fill="#FE6847"/>
</g>
<defs>
<clipPath id="clip0_170_2675">
<rect width="24" height="24" fill="white"/>
</clipPath>
</defs>
</svg>
