<svg width="16" height="16" viewBox="0 0 16 16" fill="none" xmlns="http://www.w3.org/2000/svg">
<path d="M12.5 10.8125C12.2188 10.8125 11.9375 10.7 11.7125 10.475L10.025 8.7875C9.8 8.5625 9.6875 8.28125 9.6875 8C9.6875 7.71875 9.8 7.4375 10.025 7.2125L11.7125 5.525C11.9375 5.3 12.2188 5.1875 12.5 5.1875C12.7812 5.1875 13.0625 5.3 13.2875 5.525L14.975 7.2125C15.2 7.4375 15.3125 7.71875 15.3125 8C15.3125 8.28125 15.2 8.5625 14.975 8.7875L13.2875 10.475C13.0625 10.7 12.7812 10.8125 12.5 10.8125ZM8 6.3125C7.71875 6.3125 7.4375 6.2 7.2125 5.975L5.525 4.2875C5.3 4.0625 5.1875 3.78125 5.1875 3.5C5.1875 3.21875 5.3 2.9375 5.525 2.7125L7.2125 1.025C7.4375 0.8 7.71875 0.6875 8 0.6875C8.28125 0.6875 8.5625 0.8 8.7875 1.025L10.475 2.7125C10.7 2.9375 10.8125 3.21875 10.8125 3.5C10.8125 3.78125 10.7 4.0625 10.475 4.2875L8.7875 5.975C8.5625 6.2 8.28125 6.3125 8 6.3125ZM8 15.3125C7.71875 15.3125 7.4375 15.2 7.2125 14.975L5.525 13.2875C5.3 13.0625 5.1875 12.7812 5.1875 12.5C5.1875 12.2188 5.3 11.9375 5.525 11.7125L7.2125 10.025C7.4375 9.8 7.71875 9.6875 8 9.6875C8.28125 9.6875 8.5625 9.8 8.7875 10.025L10.475 11.7125C10.7 11.9375 10.8125 12.2188 10.8125 12.5C10.8125 12.7812 10.7 13.0625 10.475 13.2875L8.7875 14.975C8.5625 15.2 8.28125 15.3125 8 15.3125ZM3.5 10.8125C3.21875 10.8125 2.9375 10.7 2.7125 10.475L1.025 8.7875C0.8 8.5625 0.6875 8.28125 0.6875 8C0.6875 7.71875 0.8 7.4375 1.025 7.2125L2.7125 5.525C2.9375 5.3 3.21875 5.1875 3.5 5.1875C3.78125 5.1875 4.0625 5.3 4.2875 5.525L5.975 7.2125C6.2 7.4375 6.3125 7.71875 6.3125 8C6.3125 8.28125 6.2 8.5625 5.975 8.7875L4.2875 10.475C4.0625 10.7 3.78125 10.8125 3.5 10.8125Z" fill="white"/>
</svg>
