<svg width="24" height="24" viewBox="0 0 24 24" fill="none" xmlns="http://www.w3.org/2000/svg">
<path d="M4.80005 12.8H5.60005C5.81222 12.8 6.01571 12.7157 6.16573 12.5656C6.31576 12.4156 6.40005 12.2121 6.40005 12C6.40005 11.7878 6.31576 11.5843 6.16573 11.4343C6.01571 11.2842 5.81222 11.2 5.60005 11.2H4.80005V12.8ZM11.2 12.8H12C12.2122 12.8 12.4157 12.7157 12.5657 12.5656C12.7158 12.4156 12.8 12.2121 12.8 12C12.8 11.7878 12.7158 11.5843 12.5657 11.4343C12.4157 11.2842 12.2122 11.2 12 11.2H11.2V12.8Z" fill="#FFC635"/>
<path fill-rule="evenodd" clip-rule="evenodd" d="M1.59998 2.4C1.59998 1.76348 1.85283 1.15303 2.30292 0.702944C2.75301 0.252856 3.36346 0 3.99998 0L17.1312 0L22.4 5.2688V21.6C22.4 22.2365 22.1471 22.847 21.697 23.2971C21.2469 23.7471 20.6365 24 20 24H3.99998C3.36346 24 2.75301 23.7471 2.30292 23.2971C1.85283 22.847 1.59998 22.2365 1.59998 21.6V2.4ZM3.19998 9.6H5.59998C6.23649 9.6 6.84694 9.85286 7.29703 10.3029C7.74712 10.753 7.99998 11.3635 7.99998 12C7.99998 12.6365 7.74712 13.247 7.29703 13.6971C6.84694 14.1471 6.23649 14.4 5.59998 14.4H4.79998V17.6H3.19998V9.6ZM9.59998 9.6H12C12.6365 9.6 13.2469 9.85286 13.697 10.3029C14.1471 10.753 14.4 11.3635 14.4 12C14.4 12.6365 14.1471 13.247 13.697 13.6971C13.2469 14.1471 12.6365 14.4 12 14.4H11.2V17.6H9.59998V9.6ZM17.6 17.6H19.2V11.2H20.8V9.6H16V11.2H17.6V17.6Z" fill="#FFC635"/>
</svg>
