<svg width="24" height="24" viewBox="0 0 24 24" fill="none" xmlns="http://www.w3.org/2000/svg">
<path d="M13.5 6.375V0H4.125C3.50156 0 3 0.501562 3 1.125V22.875C3 23.4984 3.50156 24 4.125 24H19.875C20.4984 24 21 23.4984 21 22.875V7.5H14.625C14.0063 7.5 13.5 6.99375 13.5 6.375ZM9 13.125C9 13.3322 8.83219 13.5 8.625 13.5H8.25C7.83563 13.5 7.5 13.8356 7.5 14.25V15.75C7.5 16.1644 7.83563 16.5 8.25 16.5H8.625C8.83219 16.5 9 16.6678 9 16.875V17.625C9 17.8322 8.83219 18 8.625 18H8.25C7.00734 18 6 16.9927 6 15.75V14.25C6 13.0073 7.00734 12 8.25 12H8.625C8.83219 12 9 12.1678 9 12.375V13.125ZM11.0752 18H10.5C10.2928 18 10.125 17.8322 10.125 17.625V16.875C10.125 16.6678 10.2928 16.5 10.5 16.5H11.0752C11.3541 16.5 11.5631 16.3359 11.5631 16.1897C11.5631 16.1287 11.528 16.065 11.4637 16.0097L10.4377 15.1298C10.0406 14.7914 9.81281 14.3105 9.81281 13.8108C9.81281 12.8123 10.7044 12.0005 11.8008 12.0005H12.375C12.5822 12.0005 12.75 12.1683 12.75 12.3755V13.1255C12.75 13.3327 12.5822 13.5005 12.375 13.5005H11.7998C11.5209 13.5005 11.3119 13.6645 11.3119 13.8108C11.3119 13.8717 11.347 13.9355 11.4113 13.9908L12.4373 14.8706C12.8344 15.2091 13.0622 15.69 13.0622 16.1897C13.0627 17.1877 12.1716 18 11.0752 18ZM15 12.375V13.35C15 14.3002 15.2672 15.233 15.75 16.0163C16.2328 15.2334 16.5 14.3002 16.5 13.35V12.375C16.5 12.1678 16.6678 12 16.875 12H17.625C17.8322 12 18 12.1678 18 12.375V13.35C18 15.0131 17.3962 16.5792 16.2994 17.7605C16.1578 17.9128 15.9586 18 15.75 18C15.5414 18 15.3422 17.9128 15.2006 17.7605C14.1038 16.5792 13.5 15.0131 13.5 13.35V12.375C13.5 12.1678 13.6678 12 13.875 12H14.625C14.8322 12 15 12.1678 15 12.375ZM20.6719 4.92188L16.0828 0.328125C15.8719 0.117188 15.5859 0 15.2859 0H15V6H21V5.71406C21 5.41875 20.8828 5.13281 20.6719 4.92188Z" fill="#DD0101"/>
</svg>
