<svg width="18" height="18" viewBox="0 0 18 18" fill="none" xmlns="http://www.w3.org/2000/svg">
<path d="M13.5 11.8125C13.2188 11.8125 12.9375 11.7 12.7125 11.475L11.025 9.7875C10.8 9.5625 10.6875 9.28125 10.6875 9C10.6875 8.71875 10.8 8.4375 11.025 8.2125L12.7125 6.525C12.9375 6.3 13.2188 6.1875 13.5 6.1875C13.7812 6.1875 14.0625 6.3 14.2875 6.525L15.975 8.2125C16.2 8.4375 16.3125 8.71875 16.3125 9C16.3125 9.28125 16.2 9.5625 15.975 9.7875L14.2875 11.475C14.0625 11.7 13.7812 11.8125 13.5 11.8125ZM13.5 7.3125L11.8125 9L13.5 10.6875L15.1875 9L13.5 7.3125ZM9 7.3125C8.71875 7.3125 8.4375 7.2 8.2125 6.975L6.525 5.2875C6.3 5.0625 6.1875 4.78125 6.1875 4.5C6.1875 4.21875 6.3 3.9375 6.525 3.7125L8.2125 2.025C8.4375 1.8 8.71875 1.6875 9 1.6875C9.28125 1.6875 9.5625 1.8 9.7875 2.025L11.475 3.7125C11.7 3.9375 11.8125 4.21875 11.8125 4.5C11.8125 4.78125 11.7 5.0625 11.475 5.2875L9.7875 6.975C9.5625 7.2 9.28125 7.3125 9 7.3125ZM9 2.8125L7.3125 4.5L9 6.1875L10.6875 4.5L9 2.8125ZM9 16.3125C8.71875 16.3125 8.4375 16.2 8.2125 15.975L6.525 14.2875C6.3 14.0625 6.1875 13.7812 6.1875 13.5C6.1875 13.2188 6.3 12.9375 6.525 12.7125L8.2125 11.025C8.4375 10.8 8.71875 10.6875 9 10.6875C9.28125 10.6875 9.5625 10.8 9.7875 11.025L11.475 12.7125C11.7 12.9375 11.8125 13.2188 11.8125 13.5C11.8125 13.7812 11.7 14.0625 11.475 14.2875L9.7875 15.975C9.5625 16.2 9.28125 16.3125 9 16.3125ZM9 11.8125L7.3125 13.5L9 15.1875L10.6875 13.5L9 11.8125ZM4.5 11.8125C4.21875 11.8125 3.9375 11.7 3.7125 11.475L2.025 9.7875C1.8 9.5625 1.6875 9.28125 1.6875 9C1.6875 8.71875 1.8 8.4375 2.025 8.2125L3.7125 6.525C3.9375 6.3 4.21875 6.1875 4.5 6.1875C4.78125 6.1875 5.0625 6.3 5.2875 6.525L6.975 8.2125C7.2 8.4375 7.3125 8.71875 7.3125 9C7.3125 9.28125 7.2 9.5625 6.975 9.7875L5.2875 11.475C5.0625 11.7 4.78125 11.8125 4.5 11.8125ZM4.5 7.3125L2.8125 9L4.5 10.6875L6.1875 9L4.5 7.3125Z" fill="#444444"/>
</svg>
